<svg width="311" height="128" viewBox="0 0 311 128" fill="none" xmlns="http://www.w3.org/2000/svg">
<g clip-path="url(#clip0_595_4892)">
<path d="M1.20479 128C0.39586 128 0 127.646 0 126.929V42.4682C0 41.7512 0.404466 41.397 1.20479 41.397H82.9758C83.7761 41.397 84.1806 41.7512 84.1806 42.4682V110.541C84.1806 111.258 84.585 111.613 85.3854 111.613H98.879C99.5933 111.613 99.8601 111.932 99.6794 112.563L90.9618 127.534C90.7811 127.853 90.5143 128.009 90.1615 128.009H1.20479V128Z" fill="#5E5CE6"/>
<path d="M212.62 41.4574H275.906C281.233 41.4574 285.691 42.1917 289.279 43.6516C292.868 45.1115 295.751 46.9689 297.936 49.2236C300.114 51.4783 301.663 53.9922 302.592 56.7566C303.513 59.5296 303.986 62.2162 303.986 64.8251C303.986 67.2785 303.642 69.5678 302.954 71.7102C302.265 73.844 301.336 75.7272 300.174 77.3426C299.004 78.9667 297.635 80.228 296.06 81.135C294.486 82.0421 292.773 82.5 290.914 82.5V82.7332C292.851 82.7332 294.985 83.0528 297.325 83.6835C299.666 84.3141 301.843 85.368 303.866 86.828C305.88 88.2965 307.575 90.2921 308.952 92.8146C310.32 95.3457 311.008 98.5075 311.008 102.309C311.008 104.606 310.527 107.233 309.554 110.196C308.59 113.159 306.99 115.949 304.769 118.558C302.549 121.167 299.589 123.387 295.88 125.201C292.162 127.024 287.532 127.931 281.964 127.931H212.62C211.897 127.931 211.536 127.577 211.536 126.86V42.5199C211.536 41.8116 211.897 41.4487 212.62 41.4487V41.4574Z" fill="#FF9F0A"/>
<path d="M106.745 113.09C106.366 113.09 106.108 112.96 105.953 112.692C105.798 112.433 105.798 112.165 105.953 111.906L146.314 41.7856C146.615 41.5264 146.882 41.3882 147.105 41.3882H164.067C164.446 41.3882 164.704 41.5178 164.859 41.7856L205.331 111.906C205.486 112.165 205.46 112.433 205.28 112.692C205.09 112.951 204.849 113.09 204.54 113.09H106.745Z" fill="#FF453A"/>
<path d="M205.073 111.509H106.194C105.956 111.509 105.764 111.702 105.764 111.941V127.568C105.764 127.807 105.956 128 106.194 128H205.073C205.311 128 205.503 127.807 205.503 127.568V111.941C205.503 111.702 205.311 111.509 205.073 111.509Z" fill="#FFD60A"/>
<path d="M30.0596 25.9855C30.0596 26.0632 30.008 26.1237 29.9133 26.1669C28.743 26.6593 27.3402 27.1085 25.688 27.5145C24.0357 27.9206 22.2027 28.1279 20.1975 28.1279C17.9601 28.1279 15.7484 27.8601 13.5454 27.3158C11.3423 26.7716 9.37162 25.9509 7.62467 24.8365C5.87773 23.7308 4.44919 22.314 3.35627 20.6035C2.26335 18.8931 1.72119 16.8803 1.72119 14.5564C1.72119 12.5609 2.031 10.8159 2.6506 9.32137C3.27021 7.82687 4.08775 6.5397 5.11182 5.45986C6.12729 4.37138 7.28905 3.48159 8.5799 2.78186C9.87075 2.08212 11.1874 1.5206 12.5299 1.09731C13.8724 0.682647 15.1891 0.38893 16.4799 0.224794C17.7707 0.0606587 18.9153 -0.0170898 19.905 -0.0170898C22.065 -0.0170898 23.9926 0.155685 25.6966 0.501234C27.4005 0.846783 28.8032 1.19233 29.9219 1.53788C30.0166 1.58971 30.0682 1.65882 30.0682 1.76249L30.4383 6.86797C30.4383 7.04075 30.3608 7.12714 30.2145 7.12714C30.1887 7.12714 30.1715 7.12714 30.1543 7.10986C30.1457 7.10122 30.1199 7.09258 30.1027 7.09258C29.8015 6.97164 29.3282 6.79886 28.6913 6.57426C28.0459 6.34965 27.28 6.13368 26.385 5.90908C25.49 5.68447 24.5004 5.49442 23.4075 5.33892C22.3145 5.18342 21.1442 5.09704 19.905 5.09704C18.2182 5.09704 16.5918 5.32164 15.0255 5.7795C13.4593 6.23735 12.0738 6.88525 10.8518 7.72321C9.6384 8.56116 8.66596 9.56326 7.94308 10.7208C7.22021 11.8784 6.85877 13.157 6.85877 14.5651C6.85877 15.6708 7.08252 16.6557 7.53001 17.5022C7.97751 18.3488 8.56269 19.0918 9.30278 19.7224C10.0343 20.353 10.869 20.8713 11.7984 21.2946C12.7278 21.7179 13.6917 22.0549 14.6813 22.314C15.671 22.5732 16.652 22.7546 17.6072 22.8669C18.5625 22.9792 19.423 23.031 20.1975 23.031C21.3163 23.031 22.4006 22.9274 23.4591 22.72C24.5176 22.5127 25.4728 22.2622 26.342 21.9771C27.2112 21.692 27.9857 21.3983 28.6655 21.0873C29.3454 20.7763 29.8789 20.5258 30.249 20.3271C30.2748 20.3271 30.292 20.3271 30.3092 20.3098C30.3178 20.3012 30.3436 20.2926 30.3608 20.2926C30.5588 20.2926 30.6362 20.3789 30.5846 20.5517L30.0596 25.9855Z" fill="white"/>
<path d="M36.1697 0.924463C36.1697 0.699856 36.2816 0.596191 36.5053 0.596191H40.9372C41.1868 0.596191 41.3073 0.708495 41.3073 0.924463V11.1614C41.3073 11.4119 41.4191 11.5328 41.6429 11.5328H59.6717C59.9213 11.5328 60.0418 11.4119 60.0418 11.1614V0.924463C60.0418 0.699856 60.1537 0.596191 60.3774 0.596191H64.8093C65.0331 0.596191 65.1449 0.708495 65.1449 0.924463V27.2121C65.1449 27.4626 65.0331 27.5836 64.8093 27.5836H60.3774C60.1537 27.5836 60.0418 27.4626 60.0418 27.2121V16.9752C60.0418 16.7506 59.9127 16.6469 59.6717 16.6469H41.6429C41.4191 16.6469 41.3073 16.7592 41.3073 16.9752V27.2121C41.3073 27.4626 41.1868 27.5836 40.9372 27.5836H36.5053C36.2816 27.5836 36.1697 27.4626 36.1697 27.2121V0.924463Z" fill="white"/>
<path d="M70.0244 27.1344L83.3201 0.74305C83.4148 0.648024 83.5095 0.596191 83.5783 0.596191H89.1634C89.2839 0.596191 89.3699 0.648024 89.4215 0.74305L102.752 27.1344C102.803 27.2294 102.795 27.333 102.734 27.4281C102.674 27.5231 102.588 27.5749 102.494 27.5749H97.3904C97.2699 27.5749 97.1838 27.5145 97.1322 27.3935L94.8947 22.9532C94.8431 22.8582 94.7571 22.8064 94.6366 22.8064H78.0965C77.9932 22.8064 77.9244 22.8582 77.8727 22.9532L75.6353 27.3935C75.5578 27.5145 75.4718 27.5749 75.3771 27.5749H70.2739C70.1449 27.5749 70.0588 27.5231 70.0158 27.4281C69.9641 27.333 69.9641 27.2294 70.0158 27.1344H70.0244ZM80.7901 17.7095H91.9602C92.0377 17.7095 92.0893 17.675 92.1237 17.6145C92.1581 17.554 92.1581 17.4935 92.1065 17.4503L86.487 6.28911C86.4354 6.16817 86.3751 6.16817 86.2977 6.28911L80.6352 17.4503C80.5835 17.6231 80.6352 17.7095 80.7815 17.7095H80.7901Z" fill="white"/>
<path d="M107.64 0.812009C107.64 0.665151 107.717 0.587402 107.863 0.587402H128.792C130.006 0.587402 131.133 0.829287 132.166 1.30442C133.198 1.78819 134.093 2.43609 134.851 3.24813C135.608 4.06017 136.202 4.99315 136.641 6.03844C137.071 7.08372 137.295 8.16356 137.295 9.26932C137.295 10.3751 137.08 11.4549 136.658 12.4138C136.236 13.3727 135.651 14.2107 134.911 14.9277C134.171 15.6447 133.276 16.2062 132.252 16.6122C131.219 17.0183 130.109 17.2342 128.921 17.2601C128.818 17.2601 128.81 17.2947 128.887 17.3724L138.009 27.2465C138.061 27.2983 138.069 27.3588 138.026 27.4279C137.992 27.497 137.932 27.5402 137.863 27.5402H131.83C131.779 27.5402 131.727 27.5143 131.684 27.4711L122.295 17.3379C122.243 17.2861 122.192 17.2688 122.149 17.2688H113.027C112.88 17.2688 112.803 17.3379 112.803 17.4934V27.2897C112.803 27.4366 112.726 27.5143 112.579 27.5143H107.889C107.743 27.5143 107.665 27.4452 107.665 27.2897V0.812009H107.64ZM113.001 12.1633H128.792C129.188 12.1633 129.584 12.1115 129.989 11.9992C130.384 11.8869 130.746 11.7141 131.064 11.4808C131.383 11.2476 131.649 10.9452 131.847 10.5738C132.045 10.2023 132.149 9.77037 132.149 9.27796C132.149 8.78555 132.054 8.3277 131.873 7.89576C131.684 7.46383 131.434 7.09236 131.107 6.76409C130.78 6.44446 130.427 6.1853 130.023 5.98661C129.627 5.78792 129.214 5.69289 128.792 5.69289H113.001C112.855 5.69289 112.777 5.762 112.777 5.9175V11.9387C112.777 12.0855 112.855 12.1633 113.001 12.1633Z" fill="white"/>
<path d="M142.278 27.1344L155.573 0.74305C155.668 0.648024 155.763 0.596191 155.831 0.596191H161.417C161.537 0.596191 161.623 0.648024 161.675 0.74305L175.005 27.1344C175.057 27.2294 175.048 27.333 174.988 27.4281C174.927 27.5231 174.841 27.5749 174.747 27.5749H169.644C169.523 27.5749 169.437 27.5145 169.385 27.3935L167.148 22.9532C167.096 22.8582 167.01 22.8064 166.89 22.8064H150.35C150.246 22.8064 150.178 22.8582 150.126 22.9532L147.888 27.3935C147.811 27.5145 147.725 27.5749 147.63 27.5749H142.527C142.398 27.5749 142.312 27.5231 142.269 27.4281C142.217 27.333 142.217 27.2294 142.269 27.1344H142.278ZM153.043 17.7095H164.213C164.291 17.7095 164.342 17.675 164.377 17.6145C164.411 17.554 164.411 17.4935 164.36 17.4503L158.74 6.28911C158.689 6.16817 158.628 6.16817 158.551 6.28911L152.888 17.4503C152.837 17.6231 152.888 17.7095 153.035 17.7095H153.043Z" fill="white"/>
<path d="M205.443 25.9855C205.443 26.0632 205.391 26.1237 205.297 26.1669C204.126 26.6593 202.724 27.1085 201.071 27.5145C199.419 27.9206 197.586 28.1279 195.581 28.1279C193.343 28.1279 191.132 27.8601 188.929 27.3158C186.726 26.7716 184.755 25.9509 183.008 24.8365C181.261 23.7308 179.832 22.314 178.74 20.6035C177.647 18.8931 177.104 16.8803 177.104 14.5564C177.104 12.5609 177.414 10.8159 178.034 9.32137C178.654 7.82687 179.471 6.5397 180.495 5.45986C181.511 4.37138 182.672 3.48159 183.963 2.78186C185.254 2.08212 186.571 1.5206 187.913 1.09731C189.256 0.682647 190.572 0.38893 191.863 0.224794C193.154 0.0606587 194.299 -0.0170898 195.288 -0.0170898C197.448 -0.0170898 199.376 0.155685 201.08 0.501234C202.784 0.846783 204.187 1.19233 205.305 1.53788C205.4 1.58971 205.452 1.65882 205.452 1.76249L205.822 6.86797C205.822 7.04075 205.744 7.12714 205.598 7.12714C205.572 7.12714 205.555 7.12714 205.538 7.10986C205.529 7.10122 205.503 7.09258 205.486 7.09258C205.185 6.97164 204.711 6.79886 204.075 6.57426C203.429 6.34965 202.663 6.13368 201.768 5.90908C200.873 5.68447 199.884 5.49442 198.791 5.33892C197.698 5.18342 196.527 5.09704 195.288 5.09704C193.602 5.09704 191.975 5.32164 190.409 5.7795C188.843 6.23735 187.457 6.88525 186.235 7.72321C185.022 8.56116 184.049 9.56326 183.326 10.7208C182.604 11.8784 182.242 13.157 182.242 14.5651C182.242 15.6708 182.466 16.6557 182.913 17.5022C183.361 18.3488 183.946 19.0918 184.686 19.7224C185.418 20.353 186.252 20.8713 187.182 21.2946C188.111 21.7179 189.075 22.0549 190.065 22.314C191.054 22.5732 192.035 22.7546 192.991 22.8669C193.946 22.9792 194.806 23.031 195.581 23.031C196.7 23.031 197.784 22.9274 198.842 22.72C199.901 22.5127 200.856 22.2622 201.725 21.9771C202.594 21.692 203.369 21.3983 204.049 21.0873C204.729 20.7763 205.262 20.5258 205.632 20.3271C205.658 20.3271 205.675 20.3271 205.693 20.3098C205.701 20.3012 205.727 20.2926 205.744 20.2926C205.942 20.2926 206.02 20.3789 205.968 20.5517L205.443 25.9855Z" fill="white"/>
<path d="M209.686 4.99315L211.209 0.665151C211.209 0.613318 211.235 0.587402 211.286 0.587402H239.625C239.676 0.587402 239.702 0.613318 239.702 0.665151L241.303 4.99315C241.303 5.0709 241.268 5.10546 241.191 5.10546H228.153C228.076 5.10546 228.042 5.14001 228.042 5.21776V27.3243C228.042 27.4711 227.981 27.5489 227.852 27.5489H223.119C222.999 27.5489 222.93 27.4798 222.93 27.3243V5.20912C222.93 5.14001 222.895 5.09682 222.818 5.09682H209.78C209.703 5.09682 209.668 5.06226 209.668 4.98451L209.686 4.99315Z" fill="white"/>
<path d="M246.148 1.03688C246.148 0.769079 246.294 0.630859 246.595 0.630859H271.552C271.672 0.630859 271.758 0.69133 271.81 0.812273L273.264 5.35624C273.316 5.45127 273.307 5.53766 273.247 5.6154C273.187 5.69315 273.101 5.72771 273.006 5.72771H251.707C251.432 5.72771 251.294 5.86593 251.294 6.13373V11.196C251.294 11.3947 251.38 11.4897 251.552 11.4897H267.49C267.584 11.4897 267.662 11.5243 267.714 11.602C267.765 11.6798 267.774 11.7489 267.748 11.8266L266.294 16.3706C266.242 16.5175 266.147 16.5952 265.992 16.5952H251.544C251.371 16.5952 251.285 16.6816 251.285 16.8544V21.9167C251.285 22.0376 251.32 22.1413 251.397 22.2277C251.475 22.3141 251.569 22.3573 251.698 22.3573H272.997C273.101 22.3573 273.178 22.3918 273.238 22.4696C273.299 22.5473 273.307 22.6164 273.256 22.6942L271.801 27.2381C271.75 27.3591 271.664 27.4195 271.543 27.4195H246.587C246.285 27.4195 246.139 27.2813 246.139 27.0135V1.03688H246.148Z" fill="white"/>
<path d="M278.884 0.812009C278.884 0.665151 278.961 0.587402 279.108 0.587402H300.036C301.25 0.587402 302.377 0.829287 303.41 1.30442C304.443 1.78819 305.338 2.43609 306.095 3.24813C306.852 4.06017 307.446 4.99315 307.885 6.03844C308.315 7.08372 308.539 8.16356 308.539 9.26932C308.539 10.3751 308.324 11.4549 307.902 12.4138C307.48 13.3727 306.895 14.2107 306.155 14.9277C305.406 15.6447 304.52 16.2062 303.496 16.6122C302.463 17.0183 301.353 17.2342 300.166 17.2601C300.062 17.2601 300.054 17.2947 300.131 17.3724L309.253 27.2465C309.305 27.2983 309.313 27.3588 309.27 27.4279C309.236 27.497 309.176 27.5402 309.107 27.5402H303.074C303.023 27.5402 302.971 27.5143 302.928 27.4711L293.539 17.3379C293.488 17.2861 293.436 17.2688 293.393 17.2688H284.271C284.125 17.2688 284.047 17.3379 284.047 17.4934V27.2897C284.047 27.4366 283.97 27.5143 283.823 27.5143H279.133C278.987 27.5143 278.91 27.4452 278.91 27.2897V0.812009H278.884ZM284.245 12.1633H300.036C300.432 12.1633 300.828 12.1115 301.233 11.9992C301.629 11.8869 301.99 11.7141 302.308 11.4808C302.627 11.2476 302.894 10.9452 303.092 10.5738C303.289 10.2023 303.393 9.77037 303.393 9.27796C303.393 8.78555 303.298 8.3277 303.117 7.89576C302.928 7.46383 302.678 7.09236 302.351 6.76409C302.024 6.44446 301.672 6.1853 301.267 5.98661C300.871 5.78792 300.458 5.69289 300.036 5.69289H284.245C284.099 5.69289 284.021 5.762 284.021 5.9175V11.9387C284.021 12.0855 284.099 12.1633 284.245 12.1633Z" fill="white"/>
</g>
<defs>
<clipPath id="clip0_595_4892">
<rect width="311" height="128" fill="white"/>
</clipPath>
</defs>
</svg>
